<mxfile modified="2023-08-05T12:22:18.875Z" host="app.diagrams.net" agent="Mozilla/5.0 (Macintosh; Intel Mac OS X 10_15_7) AppleWebKit/537.36 (KHTML, like Gecko) Chrome/115.0.0.0 Safari/537.36" etag="9TI_htPphVZVhGqzB2Wy" version="21.6.6" type="github" pages="2">
  <diagram name="ETL" id="13_bKDjec09mBoNMNjHy">
    <mxGraphModel dx="954" dy="1225" grid="0" gridSize="10" guides="1" tooltips="1" connect="1" arrows="1" fold="1" page="1" pageScale="1" pageWidth="827" pageHeight="583" background="#ffffff" math="0" shadow="0">
      <root>
        <mxCell id="qwEwuG-BT45gLk1Ihkxa-0" />
        <mxCell id="qwEwuG-BT45gLk1Ihkxa-1" parent="qwEwuG-BT45gLk1Ihkxa-0" />
        <mxCell id="qwEwuG-BT45gLk1Ihkxa-2" value="&lt;b&gt;Analytics/Queery&lt;/b&gt;" style="fillColor=#F6F6F6;strokeColor=none;shadow=0;gradientColor=none;fontSize=14;align=left;spacing=10;fontColor=#717171;9E9E9E;verticalAlign=top;spacingTop=-4;fontStyle=0;spacingLeft=40;html=1;" vertex="1" parent="qwEwuG-BT45gLk1Ihkxa-1">
          <mxGeometry x="736" y="143" width="209" height="207" as="geometry" />
        </mxCell>
        <mxCell id="qwEwuG-BT45gLk1Ihkxa-3" value="" style="shape=mxgraph.gcp2.google_cloud_platform;fillColor=#F6F6F6;strokeColor=none;shadow=0;gradientColor=none;" vertex="1" parent="qwEwuG-BT45gLk1Ihkxa-2">
          <mxGeometry width="23" height="20" relative="1" as="geometry">
            <mxPoint x="20" y="10" as="offset" />
          </mxGeometry>
        </mxCell>
        <mxCell id="qwEwuG-BT45gLk1Ihkxa-4" value="" style="strokeColor=#dddddd;shadow=1;strokeWidth=1;rounded=1;absoluteArcSize=1;arcSize=2;" vertex="1" parent="qwEwuG-BT45gLk1Ihkxa-2">
          <mxGeometry x="39.5" y="81.11020408163266" width="130" height="50.69387755102041" as="geometry" />
        </mxCell>
        <mxCell id="qwEwuG-BT45gLk1Ihkxa-5" value="BigQuery" style="editableCssRules=.*;html=1;fontColor=#999999;shape=image;verticalLabelPosition=middle;labelBackgroundColor=#ffffff;verticalAlign=middle;labelPosition=right;align=left;spacingLeft=20;part=1;points=[];imageAspect=0;image=data:image/svg+xml,PHN2ZyB4bWxucz0iaHR0cDovL3d3dy53My5vcmcvMjAwMC9zdmciIHhtbG5zOnY9Imh0dHBzOi8vdmVjdGEuaW8vbmFubyIgd2lkdGg9IjIwLjAwMTA0NTIyNzA1MDc4IiBoZWlnaHQ9IjIwLjAwMTA0NTIyNzA1MDc4IiBmaWxsLXJ1bGU9ImV2ZW5vZGQiIHZpZXdCb3g9IjAgMCAyMC4wMDEwNDUyMjcwNTA3OCAyMC4wMDEwNDUyMjcwNTA3OCI+JiN4YTsJPHN0eWxlIHR5cGU9InRleHQvY3NzIj4mI3hhOwkuc3Qwe2ZpbGw6I2FlY2JmYTt9JiN4YTsJLnN0MXtmaWxsOiM2NjlkZjY7fSYjeGE7CS5zdDJ7ZmlsbDojNDI4NWY0O30mI3hhOwk8L3N0eWxlPiYjeGE7CTxwYXRoIGNsYXNzPSJzdDAiIGQ9Ik00LjczIDguODN2Mi42M2E0LjkxIDQuOTEgMCAwIDAgMS43MSAxLjc0VjguODN6Ii8+JiN4YTsJPHBhdGggY2xhc3M9InN0MSIgZD0iTTcuODkgNi40MXY3LjUzQTcuNjIgNy42MiAwIDAgMCA5IDE0YTggOCAwIDAgMCAxIDBWNi40MXoiLz4mI3hhOwk8cGF0aCBjbGFzcz0ic3QwIiBkPSJNMTEuNjQgOS44NnYzLjI5YTUgNSAwIDAgMCAxLjctMS44MlY5Ljg2eiIvPiYjeGE7CTxwYXRoIGNsYXNzPSJzdDIiIGQ9Ik0xNS43NCAxNC4zMmwtMS40MiAxLjQyYS40Mi40MiAwIDAgMCAwIC42bDMuNTQgMy41NGEuNDIuNDIgMCAwIDAgLjU5IDBsMS40My0xLjQzYS40Mi40MiAwIDAgMCAwLS41OWwtMy41NC0zLjU0YS40Mi40MiAwIDAgMC0uNiAwIi8+JiN4YTsJPHBhdGggY2xhc3M9InN0MSIgZD0iTTkgMGE5IDkgMCAxIDAgMCAxOEE5IDkgMCAxIDAgOSAwbTAgMTUuNjlhNi42OCA2LjY4IDAgMCAxIC4wMDctMTMuMzYgNi42OCA2LjY4IDAgMCAxIDQuNzI3IDExLjQwM0E2LjY4IDYuNjggMCAwIDEgOSAxNS42OSIvPiYjeGE7PC9zdmc+;" vertex="1" parent="qwEwuG-BT45gLk1Ihkxa-4">
          <mxGeometry width="30" height="30" relative="1" as="geometry">
            <mxPoint x="15" y="15" as="offset" />
          </mxGeometry>
        </mxCell>
        <mxCell id="qwEwuG-BT45gLk1Ihkxa-6" value="ETL journery&amp;nbsp;" style="fillColor=#4DA1F5;strokeColor=none;shadow=1;gradientColor=none;fontSize=14;align=left;spacingLeft=50;fontColor=#ffffff;html=1;" vertex="1" parent="qwEwuG-BT45gLk1Ihkxa-1">
          <mxGeometry x="152" y="-8" width="720" height="40" as="geometry" />
        </mxCell>
        <mxCell id="qwEwuG-BT45gLk1Ihkxa-7" value="&lt;b&gt;Data Source&lt;/b&gt;" style="fillColor=#F6F6F6;strokeColor=none;shadow=0;gradientColor=none;fontSize=14;align=left;spacing=10;fontColor=#717171;9E9E9E;verticalAlign=top;spacingTop=-4;fontStyle=0;spacingLeft=40;html=1;" vertex="1" parent="qwEwuG-BT45gLk1Ihkxa-1">
          <mxGeometry x="50" y="99" width="220" height="381" as="geometry" />
        </mxCell>
        <mxCell id="qwEwuG-BT45gLk1Ihkxa-8" value="" style="strokeColor=#dddddd;shadow=1;strokeWidth=1;rounded=1;absoluteArcSize=1;arcSize=2;" vertex="1" parent="qwEwuG-BT45gLk1Ihkxa-1">
          <mxGeometry x="90" y="140" width="120" height="60" as="geometry" />
        </mxCell>
        <mxCell id="qwEwuG-BT45gLk1Ihkxa-9" value="Filestore" style="editableCssRules=.*;html=1;fontColor=#999999;shape=image;verticalLabelPosition=middle;labelBackgroundColor=#ffffff;verticalAlign=middle;labelPosition=right;align=left;spacingLeft=20;part=1;points=[];imageAspect=0;image=data:image/svg+xml,PHN2ZyB4bWxucz0iaHR0cDovL3d3dy53My5vcmcvMjAwMC9zdmciIHhtbG5zOnY9Imh0dHBzOi8vdmVjdGEuaW8vbmFubyIgd2lkdGg9IjIwIiBoZWlnaHQ9IjE2IiB2aWV3Qm94PSIwIDAgMjAgMTYiPiYjeGE7CTxzdHlsZSB0eXBlPSJ0ZXh0L2NzcyI+JiN4YTsJLnN0MHtmaWxsOiM0Mjg1ZjQ7fSYjeGE7CS5zdDF7ZmlsbDojNjY5ZGY2O30mI3hhOwkuc3Qye2ZpbGw6I2FlY2JmYTt9JiN4YTsJPC9zdHlsZT4mI3hhOwk8cGF0aCBjbGFzcz0ic3QwIiBkPSJNMTIgMTBIOEw2IDhoOHoiLz4mI3hhOwk8cGF0aCBjbGFzcz0ic3QyIiBkPSJNMTYgMkg0bDEtMmgxMHptMyAzSDFsMS0yaDE2eiIvPiYjeGE7CTxwYXRoIGNsYXNzPSJzdDEiIGQ9Ik0xNCA3bC0yIDNIOEw2IDdIMHY5aDIwVjd6Ii8+JiN4YTs8L3N2Zz4=;" vertex="1" parent="qwEwuG-BT45gLk1Ihkxa-8">
          <mxGeometry width="30" height="24" relative="1" as="geometry">
            <mxPoint x="15" y="18" as="offset" />
          </mxGeometry>
        </mxCell>
        <mxCell id="qwEwuG-BT45gLk1Ihkxa-10" value="" style="strokeColor=#dddddd;shadow=1;strokeWidth=1;rounded=1;absoluteArcSize=1;arcSize=2;" vertex="1" parent="qwEwuG-BT45gLk1Ihkxa-1">
          <mxGeometry x="100" y="229.5" width="100" height="60" as="geometry" />
        </mxCell>
        <mxCell id="qwEwuG-BT45gLk1Ihkxa-11" value="Cloud&#xa;SQL" style="editableCssRules=.*;html=1;fontColor=#999999;shape=image;verticalLabelPosition=middle;labelBackgroundColor=#ffffff;verticalAlign=middle;labelPosition=right;align=left;spacingLeft=20;part=1;points=[];imageAspect=0;image=data:image/svg+xml,PHN2ZyB4bWxucz0iaHR0cDovL3d3dy53My5vcmcvMjAwMC9zdmciIHhtbG5zOnY9Imh0dHBzOi8vdmVjdGEuaW8vbmFubyIgd2lkdGg9IjE0LjY1OTk5OTg0NzQxMjExIiBoZWlnaHQ9IjIwIiB2aWV3Qm94PSIwIDAgMTQuNjU5OTk5ODQ3NDEyMTEgMjAiPiYjeGE7CTxzdHlsZSB0eXBlPSJ0ZXh0L2NzcyI+JiN4YTsJLnN0MHtmaWxsOiM0Mjg1ZjQ7fSYjeGE7CS5zdDF7ZmlsbDojNjY5ZGY2O30mI3hhOwkuc3Qye2ZpbGw6I2FlY2JmYTt9JiN4YTsJPC9zdHlsZT4mI3hhOwk8c3R5bGU+JiN4YTsJCS5Ee2ZpbGwtcnVsZTpldmVub2RkfSYjeGE7CTwvc3R5bGU+JiN4YTsJPHBhdGggZD0iTTcuMzMgMTUuMzV2LTMuMDFMMCA4LjQ0djMuMDF6bTAgNC42NXYtMy4wMUwwIDEzLjA5djMuMDF6IiBjbGFzcz0ic3QyIEQiLz4mI3hhOwk8cGF0aCBkPSJNMTQuNjYgOC40NGwtNy4zMyAzLjl2My4wMWw3LjMzLTMuOXptMCA0LjY1bC03LjMzIDMuOVYyMGw3LjMzLTMuOXoiIGNsYXNzPSJzdDEgRCIvPiYjeGE7CTxwYXRoIGQ9Ik03LjMzIDB2My4wMWw3LjMzIDMuOVYzLjl6IiBjbGFzcz0ic3QwIEQiLz4mI3hhOwk8cGF0aCBkPSJNMCA2LjkxbDcuMzMtMy45VjBMMCAzLjl6IiBjbGFzcz0iRCBzdDEiLz4mI3hhOwk8cGF0aCBkPSJNNy4zMyAxMC43OVY3Ljc3TDAgMy44N3YzLjAyeiIgY2xhc3M9IkQgc3QyIi8+JiN4YTsJPHBhdGggZD0iTTE0LjY2IDMuODdsLTcuMzMgMy45djMuMDJsNy4zMy0zLjl6IiBjbGFzcz0iRCBzdDEiLz4mI3hhOzwvc3ZnPg==;" vertex="1" parent="qwEwuG-BT45gLk1Ihkxa-10">
          <mxGeometry width="22" height="30" relative="1" as="geometry">
            <mxPoint x="19" y="15" as="offset" />
          </mxGeometry>
        </mxCell>
        <mxCell id="qwEwuG-BT45gLk1Ihkxa-12" value="" style="sketch=0;outlineConnect=0;fontColor=#232F3E;gradientColor=none;fillColor=#2E27AD;strokeColor=none;dashed=0;verticalLabelPosition=bottom;verticalAlign=top;align=center;html=1;fontSize=12;fontStyle=0;aspect=fixed;pointerEvents=1;shape=mxgraph.aws4.rds_instance;" vertex="1" parent="qwEwuG-BT45gLk1Ihkxa-1">
          <mxGeometry x="122" y="336" width="78" height="78" as="geometry" />
        </mxCell>
        <mxCell id="qwEwuG-BT45gLk1Ihkxa-13" value="" style="endArrow=classic;html=1;rounded=0;exitX=1;exitY=0.478;exitDx=0;exitDy=0;exitPerimeter=0;" edge="1" parent="qwEwuG-BT45gLk1Ihkxa-1" source="qwEwuG-BT45gLk1Ihkxa-7">
          <mxGeometry width="50" height="50" relative="1" as="geometry">
            <mxPoint x="280" y="280" as="sourcePoint" />
            <mxPoint x="320" y="280" as="targetPoint" />
          </mxGeometry>
        </mxCell>
        <mxCell id="qwEwuG-BT45gLk1Ihkxa-14" value="&lt;b&gt;Data Lake/Storage&lt;/b&gt;" style="fillColor=#f8cecc;strokeColor=#b85450;shadow=0;fontSize=14;align=left;spacing=10;9E9E9E;verticalAlign=top;spacingTop=-4;fontStyle=0;spacingLeft=40;html=1;" vertex="1" parent="qwEwuG-BT45gLk1Ihkxa-1">
          <mxGeometry x="323" y="150" width="181" height="197" as="geometry" />
        </mxCell>
        <mxCell id="qwEwuG-BT45gLk1Ihkxa-15" value="" style="strokeColor=#dddddd;shadow=1;strokeWidth=1;rounded=1;absoluteArcSize=1;arcSize=2;" vertex="1" parent="qwEwuG-BT45gLk1Ihkxa-1">
          <mxGeometry x="341" y="195" width="128" height="60" as="geometry" />
        </mxCell>
        <mxCell id="qwEwuG-BT45gLk1Ihkxa-16" value="Cloud&#xa;Storage" style="editableCssRules=.*;html=1;fontColor=#999999;shape=image;verticalLabelPosition=middle;labelBackgroundColor=#ffffff;verticalAlign=middle;labelPosition=right;align=left;spacingLeft=20;part=1;points=[];imageAspect=0;image=data:image/svg+xml,PHN2ZyB4bWxucz0iaHR0cDovL3d3dy53My5vcmcvMjAwMC9zdmciIHhtbG5zOnY9Imh0dHBzOi8vdmVjdGEuaW8vbmFubyIgd2lkdGg9IjIwIiBoZWlnaHQ9IjE2IiB2aWV3Qm94PSIwIDAgMjAgMTYiPiYjeGE7CTxzdHlsZSB0eXBlPSJ0ZXh0L2NzcyI+JiN4YTsJLnN0MHtmaWxsOiM0Mjg1ZjQ7fSYjeGE7CS5zdDF7ZmlsbDojNjY5ZGY2O30mI3hhOwkuc3Qye2ZpbGw6I2FlY2JmYTt9JiN4YTsJLnN0M3tmaWxsOiNmZmY7fSYjeGE7CTwvc3R5bGU+JiN4YTsJPHBhdGggY2xhc3M9InN0MiIgZD0iTTAgMGgyMHY3SDB6Ii8+JiN4YTsJPHBhdGggY2xhc3M9InN0MSIgZD0iTTE4IDBoMnY3aC0yeiIvPiYjeGE7CTxwYXRoIGNsYXNzPSJzdDAiIGQ9Ik0xOCA3bDItN2gtMnoiLz4mI3hhOwk8cGF0aCBjbGFzcz0ic3QxIiBkPSJNMCAwaDJ2N0gweiIvPiYjeGE7CTxnIGNsYXNzPSJzdDMiPiYjeGE7CQk8cGF0aCBkPSJNNCAzaDZ2MUg0eiIvPiYjeGE7CQk8cmVjdCB4PSIxMyIgeT0iMiIgd2lkdGg9IjMiIGhlaWdodD0iMyIgcng9IjEuNSIvPiYjeGE7CTwvZz4mI3hhOwk8cGF0aCBjbGFzcz0ic3QyIiBkPSJNMCA5aDIwdjdIMHoiLz4mI3hhOwk8cGF0aCBjbGFzcz0ic3QxIiBkPSJNMTggOWgydjdoLTJ6Ii8+JiN4YTsJPHBhdGggY2xhc3M9InN0MCIgZD0iTTE4IDE2bDItN2gtMnoiLz4mI3hhOwk8cGF0aCBjbGFzcz0ic3QxIiBkPSJNMCA5aDJ2N0gweiIvPiYjeGE7CTxnIGNsYXNzPSJzdDMiPiYjeGE7CQk8cGF0aCBkPSJNNCAxMmg2djFINHoiLz4mI3hhOwkJPHJlY3QgeD0iMTMiIHk9IjExIiB3aWR0aD0iMyIgaGVpZ2h0PSIzIiByeD0iMS41Ii8+JiN4YTsJPC9nPiYjeGE7PC9zdmc+;" vertex="1" parent="qwEwuG-BT45gLk1Ihkxa-15">
          <mxGeometry width="30" height="24" relative="1" as="geometry">
            <mxPoint x="15" y="18" as="offset" />
          </mxGeometry>
        </mxCell>
        <mxCell id="qwEwuG-BT45gLk1Ihkxa-17" value="" style="strokeColor=#dddddd;shadow=1;strokeWidth=1;rounded=1;absoluteArcSize=1;arcSize=2;" vertex="1" parent="qwEwuG-BT45gLk1Ihkxa-1">
          <mxGeometry x="341" y="267" width="130" height="60" as="geometry" />
        </mxCell>
        <mxCell id="qwEwuG-BT45gLk1Ihkxa-18" value="BigQuery" style="editableCssRules=.*;html=1;fontColor=#999999;shape=image;verticalLabelPosition=middle;labelBackgroundColor=#ffffff;verticalAlign=middle;labelPosition=right;align=left;spacingLeft=20;part=1;points=[];imageAspect=0;image=data:image/svg+xml,PHN2ZyB4bWxucz0iaHR0cDovL3d3dy53My5vcmcvMjAwMC9zdmciIHhtbG5zOnY9Imh0dHBzOi8vdmVjdGEuaW8vbmFubyIgd2lkdGg9IjIwLjAwMTA0NTIyNzA1MDc4IiBoZWlnaHQ9IjIwLjAwMTA0NTIyNzA1MDc4IiBmaWxsLXJ1bGU9ImV2ZW5vZGQiIHZpZXdCb3g9IjAgMCAyMC4wMDEwNDUyMjcwNTA3OCAyMC4wMDEwNDUyMjcwNTA3OCI+JiN4YTsJPHN0eWxlIHR5cGU9InRleHQvY3NzIj4mI3hhOwkuc3Qwe2ZpbGw6I2FlY2JmYTt9JiN4YTsJLnN0MXtmaWxsOiM2NjlkZjY7fSYjeGE7CS5zdDJ7ZmlsbDojNDI4NWY0O30mI3hhOwk8L3N0eWxlPiYjeGE7CTxwYXRoIGNsYXNzPSJzdDAiIGQ9Ik00LjczIDguODN2Mi42M2E0LjkxIDQuOTEgMCAwIDAgMS43MSAxLjc0VjguODN6Ii8+JiN4YTsJPHBhdGggY2xhc3M9InN0MSIgZD0iTTcuODkgNi40MXY3LjUzQTcuNjIgNy42MiAwIDAgMCA5IDE0YTggOCAwIDAgMCAxIDBWNi40MXoiLz4mI3hhOwk8cGF0aCBjbGFzcz0ic3QwIiBkPSJNMTEuNjQgOS44NnYzLjI5YTUgNSAwIDAgMCAxLjctMS44MlY5Ljg2eiIvPiYjeGE7CTxwYXRoIGNsYXNzPSJzdDIiIGQ9Ik0xNS43NCAxNC4zMmwtMS40MiAxLjQyYS40Mi40MiAwIDAgMCAwIC42bDMuNTQgMy41NGEuNDIuNDIgMCAwIDAgLjU5IDBsMS40My0xLjQzYS40Mi40MiAwIDAgMCAwLS41OWwtMy41NC0zLjU0YS40Mi40MiAwIDAgMC0uNiAwIi8+JiN4YTsJPHBhdGggY2xhc3M9InN0MSIgZD0iTTkgMGE5IDkgMCAxIDAgMCAxOEE5IDkgMCAxIDAgOSAwbTAgMTUuNjlhNi42OCA2LjY4IDAgMCAxIC4wMDctMTMuMzYgNi42OCA2LjY4IDAgMCAxIDQuNzI3IDExLjQwM0E2LjY4IDYuNjggMCAwIDEgOSAxNS42OSIvPiYjeGE7PC9zdmc+;" vertex="1" parent="qwEwuG-BT45gLk1Ihkxa-17">
          <mxGeometry width="30" height="30" relative="1" as="geometry">
            <mxPoint x="15" y="15" as="offset" />
          </mxGeometry>
        </mxCell>
        <mxCell id="qwEwuG-BT45gLk1Ihkxa-19" value="" style="edgeStyle=none;orthogonalLoop=1;jettySize=auto;html=1;rounded=0;" edge="1" parent="qwEwuG-BT45gLk1Ihkxa-1">
          <mxGeometry width="100" relative="1" as="geometry">
            <mxPoint x="495" y="267" as="sourcePoint" />
            <mxPoint x="549" y="267" as="targetPoint" />
            <Array as="points" />
          </mxGeometry>
        </mxCell>
        <mxCell id="qwEwuG-BT45gLk1Ihkxa-20" value="" style="endArrow=classic;startArrow=classic;html=1;rounded=0;" edge="1" parent="qwEwuG-BT45gLk1Ihkxa-1">
          <mxGeometry width="50" height="50" relative="1" as="geometry">
            <mxPoint x="425" y="145" as="sourcePoint" />
            <mxPoint x="582" y="78" as="targetPoint" />
            <Array as="points">
              <mxPoint x="425" y="78" />
            </Array>
          </mxGeometry>
        </mxCell>
        <mxCell id="qwEwuG-BT45gLk1Ihkxa-21" value="" style="endArrow=classic;startArrow=classic;html=1;rounded=0;" edge="1" parent="qwEwuG-BT45gLk1Ihkxa-1">
          <mxGeometry width="50" height="50" relative="1" as="geometry">
            <mxPoint x="429" y="349.5" as="sourcePoint" />
            <mxPoint x="547" y="401" as="targetPoint" />
            <Array as="points">
              <mxPoint x="429" y="400.5" />
            </Array>
          </mxGeometry>
        </mxCell>
        <mxCell id="qwEwuG-BT45gLk1Ihkxa-22" value="" style="strokeColor=#dddddd;shadow=1;strokeWidth=1;rounded=1;absoluteArcSize=1;arcSize=2;" vertex="1" parent="qwEwuG-BT45gLk1Ihkxa-1">
          <mxGeometry x="542" y="47" width="158" height="61" as="geometry" />
        </mxCell>
        <mxCell id="qwEwuG-BT45gLk1Ihkxa-23" value="&lt;br&gt;Cloud Data Fusion" style="editableCssRules=.*;html=1;fontColor=#999999;shape=image;verticalLabelPosition=middle;labelBackgroundColor=#ffffff;verticalAlign=middle;labelPosition=right;align=left;spacingLeft=20;part=1;points=[];imageAspect=0;image=data:image/svg+xml,PHN2ZyB4bWxucz0iaHR0cDovL3d3dy53My5vcmcvMjAwMC9zdmciIHhtbG5zOnY9Imh0dHBzOi8vdmVjdGEuaW8vbmFubyIgd2lkdGg9IjM3Ny4wNDk2OTgzMjc3ODkyNiIgaGVpZ2h0PSIzNzcuMjkxNTcwNzE1Nzg5NzYiIHZpZXdCb3g9IjAuMTMxMDAwNTE4Nzk4ODI4MTIgLTAuMTIxMDAwMDA2Nzk0OTI5NSA5OS43NjEwMDE1ODY5MTQwNiA5OS44MjQ5OTY5NDgyNDIxOSI+JiN4YTs8c3R5bGUgdHlwZT0idGV4dC9jc3MiPiYjeGE7CS5zdDB7ZmlsbDojNjY5ZGY2O30mI3hhOwkuc3Qxe2ZpbGw6IzQyODVmNDt9JiN4YTsJLnN0MntmaWxsOiNhZWNiZmE7fSYjeGE7PC9zdHlsZT4mI3hhOwk8cGF0aCBjbGFzcz0ic3QwIiBkPSJNODAuNTkzIDE5LjE4djIwLjE5OWgxOS4yOTlWOS41M2MwLTIuNTM3LS45NzktNC44NDYtMi41OC02LjU2OHptLTkuOTA4IDYxLjIyNUgxOS40MzFMMy40NSA5Ny4zMzdjMS42OTUgMS40NzQgMy45MDggMi4zNjcgNi4zMzEgMi4zNjdoNzAuNTU1YzIuODczIDAgNS40NTMtMS4yNTYgNy4yMjEtMy4yNDh6Ii8+JiN4YTsJPHBhdGggY2xhc3M9InN0MSIgZD0iTTg3LjU3MyA5Ni40MzdjMS41MDEtMS43MDEgMi40MTMtMy45MzUgMi40MTMtNi4zODJWNjAuMjA0SDcwLjY4NXYyMC4yMDF6Ii8+JiN4YTsJPHBhdGggY2xhc3M9InN0MiIgZD0iTTE5LjQzMSA4MC40MDVWMjkuMzRoMjAuNTc4VjEwLjA0SDkuNzgxYy01LjMzIDAtOS42NSA0LjMyMS05LjY1IDkuNjV2NzAuMzY1Yy4wMDEgMi45MDYgMS4yODYgNS41MTMgMy4zMiA3LjI4MXptNzcuODgtNzcuNDQzQzk1LjU1IDEuMDY2IDkzLjAzNi0uMTIgOTAuMjQ0LS4xMjFINTkuOTUxVjE5LjE4aDIwLjY0M3oiLz4mI3hhOzwvc3ZnPg==;" vertex="1" parent="qwEwuG-BT45gLk1Ihkxa-22">
          <mxGeometry width="30" height="30" relative="1" as="geometry">
            <mxPoint x="15" y="15" as="offset" />
          </mxGeometry>
        </mxCell>
        <mxCell id="qwEwuG-BT45gLk1Ihkxa-24" value="" style="shape=mxgraph.gcp2.doubleRect;strokeColor=#dddddd;shadow=1;strokeWidth=1;rounded=1;absoluteArcSize=1;arcSize=2;" vertex="1" parent="qwEwuG-BT45gLk1Ihkxa-1">
          <mxGeometry x="560" y="225.5" width="128" height="68" as="geometry" />
        </mxCell>
        <mxCell id="qwEwuG-BT45gLk1Ihkxa-25" value="&lt;br&gt;Dataflow" style="editableCssRules=.*;html=1;fontColor=#999999;shape=image;verticalLabelPosition=middle;labelBackgroundColor=#ffffff;verticalAlign=middle;labelPosition=right;align=left;spacingLeft=20;part=1;points=[];imageAspect=0;image=data:image/svg+xml,PHN2ZyB4bWxucz0iaHR0cDovL3d3dy53My5vcmcvMjAwMC9zdmciIHhtbG5zOnY9Imh0dHBzOi8vdmVjdGEuaW8vbmFubyIgd2lkdGg9IjE0LjUxOTk5OTUwNDA4OTM1NSIgaGVpZ2h0PSIyMCIgdmlld0JveD0iMCAwIDE0LjUxOTk5OTUwNDA4OTM1NSAyMCI+JiN4YTsJPHN0eWxlIHR5cGU9InRleHQvY3NzIj4mI3hhOwkuc3Qwe2ZpbGwtcnVsZTpldmVub2RkfSYjeGE7CS5zdDF7ZmlsbDojNjY5ZGY2O30mI3hhOwkuc3Qye2ZpbGw6I2FlY2JmYTt9JiN4YTsJLnN0M3tmaWxsOiM0Mjg1ZjQ7fSYjeGE7CTwvc3R5bGU+JiN4YTsJPGcgY2xhc3M9InN0MCI+JiN4YTsJCTxwYXRoIGNsYXNzPSJzdDEiIGQ9Ik03LjM3IDIuMDNsLTEuNzIuOTYgMS41MiAxLjUtLjAyIDEuNzMgMS4wMi4wMS4wMi0xLjczIDQuMjQgMi41Ni0uMDEgMS4wNyAxLjc3LjAzVjYuMTFMOS4wNSAzLjA0bC0uMjctLjk0eiIvPiYjeGE7CQk8cGF0aCBjbGFzcz0ic3QyIiBkPSJNNy4zNiAyLjAzbC0xLjQyLjM1LS4yOS42MUwuMzkgNS45Mi4zNiA3Ljk3IDIuMTQgOGwuMDItMS4wNyA0LjMxLTIuNDUtLjAyIDEuNzMuODYuMDEuMDYtNC4xOXoiLz4mI3hhOwkJPGcgY2xhc3M9InN0MSI+JiN4YTsJCQk8cGF0aCBkPSJNNy4zNiAyLjAzTDMuOTUgMCAyLjIxLjk1bDMuNDQgMi4wNCAxLjcyLS45NnptLjcxIDExLjc2bC0xLjcyLS4wMi0uMDIgMS43Mi44MiAyLjQ4IDEuNDItLjEyLjI5LS44NSA1LjI3LTIuOTMuMDMtMi4wOS0xLjc5LS4wMi0uMDIgMS4xLTQuMyAyLjQ1eiIvPiYjeGE7CQkJPHBhdGggZD0iTTcuMTUgMTcuOTdsLTMuNDYgMS45NGgtLjA1bC0xLjY2LS45OSAzLjQ5LTEuOTYgMS42OCAxLjAxeiIvPiYjeGE7CQk8L2c+JiN4YTsJCTxwYXRoIGNsYXNzPSJzdDMiIGQ9Ik0xMC44OC4wOWgtLjA1TDcuMzcgMi4wM2wxLjY4IDEuMDEgMy40OS0xLjk2ek0xMC42MiAyMGgtLjA1bC0zLjQyLTIuMDNoMCAwIDBsMS43Mi0uOTYgMy40NCAyLjA0eiIvPiYjeGE7CQk8cGF0aCBjbGFzcz0ic3QyIiBkPSJNLjMzIDEzLjg5di0yaDEuNzZsLS4wMSAxLjA0IDQuMjUgMi41Ni4wMi0xLjcyLjg2LjAxLS4wNiA0LjE4LTEuNjgtMXoiLz4mI3hhOwk8L2c+JiN4YTsJPGNpcmNsZSBjbGFzcz0ic3QyIiBjeD0iMTMuMzgiIGN5PSIxMC4wNCIgcj0iMS4xNCIvPiYjeGE7CTxjaXJjbGUgY2xhc3M9InN0MiIgY3g9IjEuMTQiIGN5PSI5Ljg4IiByPSIxLjE0Ii8+JiN4YTsJPGNpcmNsZSBjbGFzcz0ic3QyIiBjeD0iNy4zMiIgY3k9IjcuOTkiIHI9IjEuMTQiLz4mI3hhOwk8Y2lyY2xlIGNsYXNzPSJzdDIiIGN4PSI3LjIzIiBjeT0iMTIiIHI9IjEuMTQiLz4mI3hhOzwvc3ZnPg==;" vertex="1" parent="qwEwuG-BT45gLk1Ihkxa-24">
          <mxGeometry width="22" height="30" relative="1" as="geometry">
            <mxPoint x="19" y="15" as="offset" />
          </mxGeometry>
        </mxCell>
        <mxCell id="qwEwuG-BT45gLk1Ihkxa-26" value="" style="strokeColor=#dddddd;shadow=1;strokeWidth=1;rounded=1;absoluteArcSize=1;arcSize=2;" vertex="1" parent="qwEwuG-BT45gLk1Ihkxa-1">
          <mxGeometry x="552" y="369" width="120" height="60" as="geometry" />
        </mxCell>
        <mxCell id="qwEwuG-BT45gLk1Ihkxa-27" value="&lt;br&gt;Dataprep" style="editableCssRules=.*;html=1;fontColor=#999999;shape=image;verticalLabelPosition=middle;labelBackgroundColor=#ffffff;verticalAlign=middle;labelPosition=right;align=left;spacingLeft=20;part=1;points=[];imageAspect=0;image=data:image/svg+xml,PHN2ZyB4bWxucz0iaHR0cDovL3d3dy53My5vcmcvMjAwMC9zdmciIHhtbG5zOnY9Imh0dHBzOi8vdmVjdGEuaW8vbmFubyIgd2lkdGg9IjE4LjI3OTk5ODc3OTI5Njg3NSIgaGVpZ2h0PSIyMCIgdmlld0JveD0iMS4yNDYyOTA4MDM4OTEyNzAxZS04IDAgMTguMjc5OTk4Nzc5Mjk2ODc1IDIwIj4mI3hhOwk8c3R5bGUgdHlwZT0idGV4dC9jc3MiPiYjeGE7CS5zdDB7ZmlsbDojNjY5ZGY2O2ZpbGwtcnVsZTpldmVub2RkfSYjeGE7CS5zdDF7ZmlsbDojNDI4NWY0O30mI3hhOwkuc3Qye2ZpbGwtcnVsZTpldmVub2RkfSYjeGE7CTwvc3R5bGU+JiN4YTsJPHBhdGggY2xhc3M9InN0MCIgZD0iTTcuNjMgOWEuOTEuOTEgMCAxIDEtLjY0My4yNjdBLjkxLjkxIDAgMCAxIDcuNjMgOXptMC0uOGExLjcxIDEuNzEgMCAxIDAgMS43IDEuNzEgMS43IDEuNyAwIDAgMC0xLjctMS43MXpNMS43MiA5YS45MS45MSAwIDEgMS0uNjQzLjI2N0EuOTEuOTEgMCAwIDEgMS43MiA5em0wLS44YTEuNzEgMS43MSAwIDEgMCAxLjcgMS43MSAxLjcgMS43IDAgMCAwLTEuNy0xLjcxem0zLjA0IDYuMTFhLjkxLjkxIDAgMSAxIDAgMS44Mi45MS45MSAwIDEgMSAwLTEuODJ6bTAtLjc5YTEuNzEgMS43MSAwIDEgMCAxLjIuNSAxLjcgMS43IDAgMCAwLTEuMi0uNXptMC05LjczYS45MS45MSAwIDAgMS0uMDQgMS44MTkuOTEuOTEgMCAwIDEtLjktLjkwOS45Mi45MiAwIDAgMSAuOTQtLjkxem0wLS44YTEuNzEgMS43MSAwIDEgMCAxLjIuNUExLjcgMS43IDAgMCAwIDQuNzYgM3oiLz4mI3hhOwk8ZyBjbGFzcz0ic3QxIj4mI3hhOwkJPHBhdGggZD0iTTcuODEgMGgxLjY4djIwSDcuODF6Ii8+JiN4YTsJCTxwYXRoIGNsYXNzPSJzdDIiIGQ9Ik0xMy40IDIuODdIOC44OWEuMzcuMzcgMCAwIDAtLjMuNHYyLjgyYS4zNi4zNiAwIDAgMCAuMy4zOWg0LjUxYS4zNi4zNiAwIDAgMCAuMzEtLjM5VjMuMjhhLjM3LjM3IDAgMCAwLS4zMS0uNDF6bTQuMzIgNS4yOUg5LjRjLS4zMSAwLS41Ni4xOC0uNTYuMzl2Mi44MmMwIC4yMi4yNS40LjU2LjRoOC4zMmMuMzEgMCAuNTYtLjE5LjU2LS40VjguNTVjMC0uMjItLjI1LS4zOS0uNTYtLjM5em0tNS45MSA1LjI4SDguMjhjLS4xMyAwLS4yMy4xOC0uMjMuMzl2Mi44MmMwIC4yMi4xLjM5LjIzLjM5aDMuNTNjLjEzIDAgLjI0LS4xOC4yNC0uMzl2LTIuODJjLS4wMS0uMjItLjExLS4zOS0uMjQtLjM5eiIvPiYjeGE7CTwvZz4mI3hhOzwvc3ZnPg==;" vertex="1" parent="qwEwuG-BT45gLk1Ihkxa-26">
          <mxGeometry width="30" height="28" relative="1" as="geometry">
            <mxPoint x="15" y="16" as="offset" />
          </mxGeometry>
        </mxCell>
        <mxCell id="qwEwuG-BT45gLk1Ihkxa-28" value="" style="edgeStyle=segmentEdgeStyle;endArrow=classic;html=1;curved=0;rounded=0;endSize=8;startSize=8;entryX=0.44;entryY=-0.008;entryDx=0;entryDy=0;entryPerimeter=0;" edge="1" parent="qwEwuG-BT45gLk1Ihkxa-1" target="qwEwuG-BT45gLk1Ihkxa-2">
          <mxGeometry width="50" height="50" relative="1" as="geometry">
            <mxPoint x="715" y="66" as="sourcePoint" />
            <mxPoint x="628" y="186" as="targetPoint" />
          </mxGeometry>
        </mxCell>
        <mxCell id="qwEwuG-BT45gLk1Ihkxa-29" value="" style="edgeStyle=segmentEdgeStyle;endArrow=classic;html=1;curved=0;rounded=0;endSize=8;startSize=8;entryX=0.45;entryY=1.014;entryDx=0;entryDy=0;entryPerimeter=0;" edge="1" parent="qwEwuG-BT45gLk1Ihkxa-1" target="qwEwuG-BT45gLk1Ihkxa-2">
          <mxGeometry width="50" height="50" relative="1" as="geometry">
            <mxPoint x="681" y="403" as="sourcePoint" />
            <mxPoint x="831" y="390" as="targetPoint" />
          </mxGeometry>
        </mxCell>
      </root>
    </mxGraphModel>
  </diagram>
  <diagram id="f106602c-feb2-e66a-4537-3a34d633f6aa" name="Injestion-Pipeline">
    <mxGraphModel dx="954" dy="1225" grid="0" gridSize="10" guides="1" tooltips="1" connect="1" arrows="1" fold="1" page="1" pageScale="1" pageWidth="827" pageHeight="583" background="#ffffff" math="0" shadow="0">
      <root>
        <mxCell id="0" />
        <mxCell id="1" parent="0" />
        <mxCell id="818" value="ETL journery&amp;nbsp;" style="fillColor=#4DA1F5;strokeColor=none;shadow=1;gradientColor=none;fontSize=14;align=left;spacingLeft=50;fontColor=#ffffff;html=1;" parent="1" vertex="1">
          <mxGeometry x="152" y="-8" width="720" height="40" as="geometry" />
        </mxCell>
        <mxCell id="52wyWmUOpJA0G0dxpCUH-1048" value="&lt;b&gt;Data Source&lt;/b&gt;" style="fillColor=#F6F6F6;strokeColor=none;shadow=0;gradientColor=none;fontSize=14;align=left;spacing=10;fontColor=#717171;9E9E9E;verticalAlign=top;spacingTop=-4;fontStyle=0;spacingLeft=40;html=1;" vertex="1" parent="1">
          <mxGeometry x="50" y="99" width="165" height="217" as="geometry" />
        </mxCell>
        <mxCell id="52wyWmUOpJA0G0dxpCUH-1050" value="" style="strokeColor=#dddddd;shadow=1;strokeWidth=1;rounded=1;absoluteArcSize=1;arcSize=2;" vertex="1" parent="1">
          <mxGeometry x="90" y="140" width="120" height="60" as="geometry" />
        </mxCell>
        <mxCell id="52wyWmUOpJA0G0dxpCUH-1051" value="Filestore" style="editableCssRules=.*;html=1;fontColor=#999999;shape=image;verticalLabelPosition=middle;labelBackgroundColor=#ffffff;verticalAlign=middle;labelPosition=right;align=left;spacingLeft=20;part=1;points=[];imageAspect=0;image=data:image/svg+xml,PHN2ZyB4bWxucz0iaHR0cDovL3d3dy53My5vcmcvMjAwMC9zdmciIHhtbG5zOnY9Imh0dHBzOi8vdmVjdGEuaW8vbmFubyIgd2lkdGg9IjIwIiBoZWlnaHQ9IjE2IiB2aWV3Qm94PSIwIDAgMjAgMTYiPiYjeGE7CTxzdHlsZSB0eXBlPSJ0ZXh0L2NzcyI+JiN4YTsJLnN0MHtmaWxsOiM0Mjg1ZjQ7fSYjeGE7CS5zdDF7ZmlsbDojNjY5ZGY2O30mI3hhOwkuc3Qye2ZpbGw6I2FlY2JmYTt9JiN4YTsJPC9zdHlsZT4mI3hhOwk8cGF0aCBjbGFzcz0ic3QwIiBkPSJNMTIgMTBIOEw2IDhoOHoiLz4mI3hhOwk8cGF0aCBjbGFzcz0ic3QyIiBkPSJNMTYgMkg0bDEtMmgxMHptMyAzSDFsMS0yaDE2eiIvPiYjeGE7CTxwYXRoIGNsYXNzPSJzdDEiIGQ9Ik0xNCA3bC0yIDNIOEw2IDdIMHY5aDIwVjd6Ii8+JiN4YTs8L3N2Zz4=;" vertex="1" parent="52wyWmUOpJA0G0dxpCUH-1050">
          <mxGeometry width="30" height="24" relative="1" as="geometry">
            <mxPoint x="15" y="18" as="offset" />
          </mxGeometry>
        </mxCell>
        <mxCell id="52wyWmUOpJA0G0dxpCUH-1052" value="" style="strokeColor=#dddddd;shadow=1;strokeWidth=1;rounded=1;absoluteArcSize=1;arcSize=2;" vertex="1" parent="1">
          <mxGeometry x="100" y="229.5" width="100" height="60" as="geometry" />
        </mxCell>
        <mxCell id="52wyWmUOpJA0G0dxpCUH-1053" value="Cloud&#xa;SQL" style="editableCssRules=.*;html=1;fontColor=#999999;shape=image;verticalLabelPosition=middle;labelBackgroundColor=#ffffff;verticalAlign=middle;labelPosition=right;align=left;spacingLeft=20;part=1;points=[];imageAspect=0;image=data:image/svg+xml,PHN2ZyB4bWxucz0iaHR0cDovL3d3dy53My5vcmcvMjAwMC9zdmciIHhtbG5zOnY9Imh0dHBzOi8vdmVjdGEuaW8vbmFubyIgd2lkdGg9IjE0LjY1OTk5OTg0NzQxMjExIiBoZWlnaHQ9IjIwIiB2aWV3Qm94PSIwIDAgMTQuNjU5OTk5ODQ3NDEyMTEgMjAiPiYjeGE7CTxzdHlsZSB0eXBlPSJ0ZXh0L2NzcyI+JiN4YTsJLnN0MHtmaWxsOiM0Mjg1ZjQ7fSYjeGE7CS5zdDF7ZmlsbDojNjY5ZGY2O30mI3hhOwkuc3Qye2ZpbGw6I2FlY2JmYTt9JiN4YTsJPC9zdHlsZT4mI3hhOwk8c3R5bGU+JiN4YTsJCS5Ee2ZpbGwtcnVsZTpldmVub2RkfSYjeGE7CTwvc3R5bGU+JiN4YTsJPHBhdGggZD0iTTcuMzMgMTUuMzV2LTMuMDFMMCA4LjQ0djMuMDF6bTAgNC42NXYtMy4wMUwwIDEzLjA5djMuMDF6IiBjbGFzcz0ic3QyIEQiLz4mI3hhOwk8cGF0aCBkPSJNMTQuNjYgOC40NGwtNy4zMyAzLjl2My4wMWw3LjMzLTMuOXptMCA0LjY1bC03LjMzIDMuOVYyMGw3LjMzLTMuOXoiIGNsYXNzPSJzdDEgRCIvPiYjeGE7CTxwYXRoIGQ9Ik03LjMzIDB2My4wMWw3LjMzIDMuOVYzLjl6IiBjbGFzcz0ic3QwIEQiLz4mI3hhOwk8cGF0aCBkPSJNMCA2LjkxbDcuMzMtMy45VjBMMCAzLjl6IiBjbGFzcz0iRCBzdDEiLz4mI3hhOwk8cGF0aCBkPSJNNy4zMyAxMC43OVY3Ljc3TDAgMy44N3YzLjAyeiIgY2xhc3M9IkQgc3QyIi8+JiN4YTsJPHBhdGggZD0iTTE0LjY2IDMuODdsLTcuMzMgMy45djMuMDJsNy4zMy0zLjl6IiBjbGFzcz0iRCBzdDEiLz4mI3hhOzwvc3ZnPg==;" vertex="1" parent="52wyWmUOpJA0G0dxpCUH-1052">
          <mxGeometry width="22" height="30" relative="1" as="geometry">
            <mxPoint x="19" y="15" as="offset" />
          </mxGeometry>
        </mxCell>
        <mxCell id="52wyWmUOpJA0G0dxpCUH-1057" value="" style="endArrow=classic;html=1;rounded=0;exitX=1.024;exitY=0.82;exitDx=0;exitDy=0;exitPerimeter=0;" edge="1" parent="1" source="52wyWmUOpJA0G0dxpCUH-1048">
          <mxGeometry width="50" height="50" relative="1" as="geometry">
            <mxPoint x="280" y="280" as="sourcePoint" />
            <mxPoint x="290" y="276" as="targetPoint" />
          </mxGeometry>
        </mxCell>
        <mxCell id="52wyWmUOpJA0G0dxpCUH-1059" value="" style="strokeColor=#dddddd;shadow=1;strokeWidth=1;rounded=1;absoluteArcSize=1;arcSize=2;" vertex="1" parent="1">
          <mxGeometry x="448" y="245.5" width="128" height="60" as="geometry" />
        </mxCell>
        <mxCell id="52wyWmUOpJA0G0dxpCUH-1060" value="Cloud&#xa;Storage" style="editableCssRules=.*;html=1;fontColor=#999999;shape=image;verticalLabelPosition=middle;labelBackgroundColor=#ffffff;verticalAlign=middle;labelPosition=right;align=left;spacingLeft=20;part=1;points=[];imageAspect=0;image=data:image/svg+xml,PHN2ZyB4bWxucz0iaHR0cDovL3d3dy53My5vcmcvMjAwMC9zdmciIHhtbG5zOnY9Imh0dHBzOi8vdmVjdGEuaW8vbmFubyIgd2lkdGg9IjIwIiBoZWlnaHQ9IjE2IiB2aWV3Qm94PSIwIDAgMjAgMTYiPiYjeGE7CTxzdHlsZSB0eXBlPSJ0ZXh0L2NzcyI+JiN4YTsJLnN0MHtmaWxsOiM0Mjg1ZjQ7fSYjeGE7CS5zdDF7ZmlsbDojNjY5ZGY2O30mI3hhOwkuc3Qye2ZpbGw6I2FlY2JmYTt9JiN4YTsJLnN0M3tmaWxsOiNmZmY7fSYjeGE7CTwvc3R5bGU+JiN4YTsJPHBhdGggY2xhc3M9InN0MiIgZD0iTTAgMGgyMHY3SDB6Ii8+JiN4YTsJPHBhdGggY2xhc3M9InN0MSIgZD0iTTE4IDBoMnY3aC0yeiIvPiYjeGE7CTxwYXRoIGNsYXNzPSJzdDAiIGQ9Ik0xOCA3bDItN2gtMnoiLz4mI3hhOwk8cGF0aCBjbGFzcz0ic3QxIiBkPSJNMCAwaDJ2N0gweiIvPiYjeGE7CTxnIGNsYXNzPSJzdDMiPiYjeGE7CQk8cGF0aCBkPSJNNCAzaDZ2MUg0eiIvPiYjeGE7CQk8cmVjdCB4PSIxMyIgeT0iMiIgd2lkdGg9IjMiIGhlaWdodD0iMyIgcng9IjEuNSIvPiYjeGE7CTwvZz4mI3hhOwk8cGF0aCBjbGFzcz0ic3QyIiBkPSJNMCA5aDIwdjdIMHoiLz4mI3hhOwk8cGF0aCBjbGFzcz0ic3QxIiBkPSJNMTggOWgydjdoLTJ6Ii8+JiN4YTsJPHBhdGggY2xhc3M9InN0MCIgZD0iTTE4IDE2bDItN2gtMnoiLz4mI3hhOwk8cGF0aCBjbGFzcz0ic3QxIiBkPSJNMCA5aDJ2N0gweiIvPiYjeGE7CTxnIGNsYXNzPSJzdDMiPiYjeGE7CQk8cGF0aCBkPSJNNCAxMmg2djFINHoiLz4mI3hhOwkJPHJlY3QgeD0iMTMiIHk9IjExIiB3aWR0aD0iMyIgaGVpZ2h0PSIzIiByeD0iMS41Ii8+JiN4YTsJPC9nPiYjeGE7PC9zdmc+;" vertex="1" parent="52wyWmUOpJA0G0dxpCUH-1059">
          <mxGeometry width="30" height="24" relative="1" as="geometry">
            <mxPoint x="15" y="18" as="offset" />
          </mxGeometry>
        </mxCell>
        <mxCell id="52wyWmUOpJA0G0dxpCUH-1061" value="" style="strokeColor=#dddddd;shadow=1;strokeWidth=1;rounded=1;absoluteArcSize=1;arcSize=2;" vertex="1" parent="1">
          <mxGeometry x="824" y="245.5" width="130" height="60" as="geometry" />
        </mxCell>
        <mxCell id="52wyWmUOpJA0G0dxpCUH-1062" value="BigQuery" style="editableCssRules=.*;html=1;fontColor=#999999;shape=image;verticalLabelPosition=middle;labelBackgroundColor=#ffffff;verticalAlign=middle;labelPosition=right;align=left;spacingLeft=20;part=1;points=[];imageAspect=0;image=data:image/svg+xml,PHN2ZyB4bWxucz0iaHR0cDovL3d3dy53My5vcmcvMjAwMC9zdmciIHhtbG5zOnY9Imh0dHBzOi8vdmVjdGEuaW8vbmFubyIgd2lkdGg9IjIwLjAwMTA0NTIyNzA1MDc4IiBoZWlnaHQ9IjIwLjAwMTA0NTIyNzA1MDc4IiBmaWxsLXJ1bGU9ImV2ZW5vZGQiIHZpZXdCb3g9IjAgMCAyMC4wMDEwNDUyMjcwNTA3OCAyMC4wMDEwNDUyMjcwNTA3OCI+JiN4YTsJPHN0eWxlIHR5cGU9InRleHQvY3NzIj4mI3hhOwkuc3Qwe2ZpbGw6I2FlY2JmYTt9JiN4YTsJLnN0MXtmaWxsOiM2NjlkZjY7fSYjeGE7CS5zdDJ7ZmlsbDojNDI4NWY0O30mI3hhOwk8L3N0eWxlPiYjeGE7CTxwYXRoIGNsYXNzPSJzdDAiIGQ9Ik00LjczIDguODN2Mi42M2E0LjkxIDQuOTEgMCAwIDAgMS43MSAxLjc0VjguODN6Ii8+JiN4YTsJPHBhdGggY2xhc3M9InN0MSIgZD0iTTcuODkgNi40MXY3LjUzQTcuNjIgNy42MiAwIDAgMCA5IDE0YTggOCAwIDAgMCAxIDBWNi40MXoiLz4mI3hhOwk8cGF0aCBjbGFzcz0ic3QwIiBkPSJNMTEuNjQgOS44NnYzLjI5YTUgNSAwIDAgMCAxLjctMS44MlY5Ljg2eiIvPiYjeGE7CTxwYXRoIGNsYXNzPSJzdDIiIGQ9Ik0xNS43NCAxNC4zMmwtMS40MiAxLjQyYS40Mi40MiAwIDAgMCAwIC42bDMuNTQgMy41NGEuNDIuNDIgMCAwIDAgLjU5IDBsMS40My0xLjQzYS40Mi40MiAwIDAgMCAwLS41OWwtMy41NC0zLjU0YS40Mi40MiAwIDAgMC0uNiAwIi8+JiN4YTsJPHBhdGggY2xhc3M9InN0MSIgZD0iTTkgMGE5IDkgMCAxIDAgMCAxOEE5IDkgMCAxIDAgOSAwbTAgMTUuNjlhNi42OCA2LjY4IDAgMCAxIC4wMDctMTMuMzYgNi42OCA2LjY4IDAgMCAxIDQuNzI3IDExLjQwM0E2LjY4IDYuNjggMCAwIDEgOSAxNS42OSIvPiYjeGE7PC9zdmc+;" vertex="1" parent="52wyWmUOpJA0G0dxpCUH-1061">
          <mxGeometry width="30" height="30" relative="1" as="geometry">
            <mxPoint x="15" y="15" as="offset" />
          </mxGeometry>
        </mxCell>
        <mxCell id="YhFb4jNiVjIDG77X7m0W-824" value="" style="endArrow=classic;html=1;rounded=0;" edge="1" parent="52wyWmUOpJA0G0dxpCUH-1061">
          <mxGeometry width="50" height="50" relative="1" as="geometry">
            <mxPoint x="-62" y="32.5" as="sourcePoint" />
            <mxPoint x="-7" y="36.5" as="targetPoint" />
          </mxGeometry>
        </mxCell>
        <mxCell id="YhFb4jNiVjIDG77X7m0W-818" value="Datastream" style="sketch=0;html=1;verticalAlign=top;labelPosition=center;verticalLabelPosition=bottom;align=center;spacingTop=-6;fontSize=11;fontStyle=1;fontColor=#999999;shape=image;aspect=fixed;imageAspect=0;image=data:image/svg+xml,PHN2ZyB4bWxucz0iaHR0cDovL3d3dy53My5vcmcvMjAwMC9zdmciIGlkPSJzdmczMjM0NyIgdmVyc2lvbj0iMS4xIiB2aWV3Qm94PSIwIDAgMjY1LjgzODA0IDI0NS4zMDU1NCIgaGVpZ2h0PSIyNDUuMzA1NTRtbSIgd2lkdGg9IjI2NS44MzgwNG1tIj4mI3hhOyAgJiN4YTsgIDxkZWZzIGlkPSJkZWZzMzIzNDQiLz4mI3hhOyAgPGcgdHJhbnNmb3JtPSJ0cmFuc2xhdGUoMjYuMDAxOTQ1LC0yNC45MTAzOTEpIiBpZD0ibGF5ZXIxIj4mI3hhOyAgICA8cGF0aCBkPSJtIDQyLjE3OTY4NywzMy45Nzg1MTYgYyAtMC42NDE1MDMsMC4wMTg2IC0xLjI4NjQ4NywwLjAzODggLTEuOTM1MzIzLDAuMDU5OTIgMi4wMTg1ODUsOC44ODg3MiAyLjQ1ODk0MSwxNi40NTc5NjYgLTAuMDk3MzMsMjYuMDYyNzY0IDEyLjI5MTAzNywtMC4zNDA5NzUgMTkuMjU0OTQyLC0wLjQ0NTY3MyAyNi44NzQ0NDksMi45Mzc4NjYgbCAwLjAxOTUzLDAuMDA3OCAwLjAxOTUzLDAuMDA5OCBjIDYuMzEwNzgzLDIuNzc3OTA4IDE0LjMyNzI4NSwxMi42MDI0NyAyMS44NjcxODcsMjYuMTcxODc1IDcuNTM5OTAzLDEzLjU2OTM5OSAxNC43MTAwOCwyOS44NzM2NzkgMjQuMDc4MTMsNDMuNjQwNjE5IGwgMC4yOTEwMiwwLjQyNzczIDAuMzIyMjYsMC40MDIzNSBjIDkuODM1NCwxMi4yMzgxNSAyMy40ODA0MiwyMi43MDczNiA0OS4wODIzOCwyNi45Njg4MSAtMi4wODM5NiwtOS41MDI2NSAtMi4yMTQ2NywtMTYuMjA1NzYgLTAuMDQwOSwtMjYuMjk3OTIgLTE3LjE1OTg5LC0zLjAxOTUgLTIwLjk5MjI3LC03LjMxNTc2IC0yOC40MDg2NCwtMTYuNTMyMjQgQyAxMjcuMDIwNSwxMDcuMDkyODMgMTE5Ljg5NjEzLDkxLjQyODc1MiAxMTEuNjU2MjUsNzYuNTk5NjA5IDEwMy4zMjUyNyw2MS42MDY1MTYgOTMuOTU5MzUxLDQ2LjQ5OTg0MSA3Ny41NTI3MzQsMzkuMjY5NTMxIDY1LjMzNTEzMSwzMy44NDk2MzIgNTQuMzg3OTc1LDMzLjYyNDUwMyA0Mi4xNzk2ODcsMzMuOTc4NTE2IFogTSAyMzkuODM2MSwxNDcuMjkzNSBhIDI3LjU3ODE5NywyNy41NzgxOTcgMCAwIDEgLTI3LjU3ODIsMjcuNTc4MiAyNy41NzgxOTcsMjcuNTc4MTk3IDAgMCAxIC0yNy41NzgxOSwtMjcuNTc4MiAyNy41NzgxOTcsMjcuNTc4MTk3IDAgMCAxIDI3LjU3ODE5LC0yNy41NzgxOSAyNy41NzgxOTcsMjcuNTc4MTk3IDAgMCAxIDI3LjU3ODIsMjcuNTc4MTkgeiBNIDE4LjA0NjY0MSwyNDguMzU3ODggQSAyMS44NTgwNjEsMjEuODU4MDYxIDAgMCAxIC0zLjgxMTQxOTUsMjcwLjIxNTk0IDIxLjg1ODA2MSwyMS44NTgwNjEgMCAwIDEgLTI1LjY2OTQ4LDI0OC4zNTc4OCAyMS44NTgwNjEsMjEuODU4MDYxIDAgMCAxIC0zLjgxMTQxOTUsMjI2LjQ5OTgyIDIxLjg1ODA2MSwyMS44NTgwNjEgMCAwIDEgMTguMDQ2NjQxLDI0OC4zNTc4OCBaIE0gMTcuNzc4MjYzLDQ2Ljc2ODQ1MiBBIDIxLjg1ODA2MSwyMS44NTgwNjEgMCAwIDEgLTQuMDc5Nzk3Nyw2OC42MjY1MTMgMjEuODU4MDYxLDIxLjg1ODA2MSAwIDAgMSAtMjUuOTM3ODU5LDQ2Ljc2ODQ1MiAyMS44NTgwNjEsMjEuODU4MDYxIDAgMCAxIC00LjA3OTc5NzcsMjQuOTEwMzkxIDIxLjg1ODA2MSwyMS44NTgwNjEgMCAwIDEgMTcuNzc4MjYzLDQ2Ljc2ODQ1MiBaIE0gMTcuNzE0MTc2LDE0Ny42NTM3OSBBIDIxLjg1ODA2MSwyMS44NTgwNjEgMCAwIDEgLTQuMTQzODg0NywxNjkuNTExODUgMjEuODU4MDYxLDIxLjg1ODA2MSAwIDAgMSAtMjYuMDAxOTQ1LDE0Ny42NTM3OSAyMS44NTgwNjEsMjEuODU4MDYxIDAgMCAxIC00LjE0Mzg4NDcsMTI1Ljc5NTczIDIxLjg1ODA2MSwyMS44NTgwNjEgMCAwIDEgMTcuNzE0MTc2LDE0Ny42NTM3OSBaIiBzdHlsZT0iY29sb3I6IzAwMDAwMDtvcGFjaXR5OjE7ZmlsbDojMzM1YmJiO2ZpbGwtb3BhY2l0eToxOy1pbmtzY2FwZS1zdHJva2U6bm9uZSIgaWQ9InBhdGgzMjg5NyIvPiYjeGE7ICAgIDxwYXRoIGQ9Im0gMTEyLjk3NzA4LDE2NS4zNDI3IGMgLTUuMDc0Niw3LjY0NjM0IC05LjMyODY3LDE0LjY3MzE5IC0xMi41MTQxOSwyMC45MTkwMiBsIC0wLjEyNSwwLjI0NjA5IC0wLjExNTIzLDAuMjUxOTYgYyAtOS4yMTU2NzYsMjAuMTM4MDEgLTE5LjUyMjQ5MSwzNi41ODk1NiAtMjkuODI4MTI5LDQzLjMwMDc4IC0xMy4xNjMxNTYsNi44NjM1MyAtMTkuODk5MzY4LDUuNTEzMDEgLTMwLjM2NDgxNSw0Ljk2MTA2IDMuMTk2MDQ0LDExLjgwNjMzIDIuNDQ0NTA2LDE5LjExMDMxIDAuMTQyNDQ4LDI2LjA1MzIxIDkuNTc3ODUsMC41MzIzNiAyNC45Mjg4MzksMS4yNzQ0MiA0Mi45NTA4ODMsLTguMzA3MjQgbCAwLjQyNzczNCwtMC4yMjY1NiAwLjQxMDE1NiwtMC4yNTk3NyBDIDEwMi44MjIzLDI0MC4zNjc4IDExMy43ODE1MiwyMTkuNTM4OTEgMTIzLjYyNSwxOTguMDc2MTcgYyAyLjYwNjk3LC01LjExMTQ2IDYuNjc0NTEsLTExLjg1MTUgMTEuNzEsLTE5LjM5NDg0IC05LjA3NDY4LC0zLjA3Nzk1IC0xNi45NDA4MSwtOC42MDk4NiAtMjIuMzU3OTIsLTEzLjMzODYzIHogbSAtNzIuODE4NSwtNC42MTUzOSA0Ni41MTQ0NzMsMC4wMTgxIDguOTkxMTU4LC0xMy4yODE0MiAtOC40MTMyODIsLTEyLjcxODM2IC00Ny4wOTI0MDYsLTAuMDE4MyBjIDIuODEzNDc4LDcuMzYzOTggMi4yMjQ4MjIsMTkuNjM5MTEgNS43ZS01LDI2IHoiIHN0eWxlPSJjb2xvcjojMDAwMDAwO29wYWNpdHk6MTtmaWxsOiM3NjllZjU7ZmlsbC1vcGFjaXR5OjE7LWlua3NjYXBlLXN0cm9rZTpub25lIiBpZD0icGF0aDMyOTAxIi8+JiN4YTsgIDwvZz4mI3hhOzwvc3ZnPg==;" vertex="1" parent="1">
          <mxGeometry x="300" y="250.5" width="42" height="39" as="geometry" />
        </mxCell>
        <mxCell id="YhFb4jNiVjIDG77X7m0W-819" value="" style="endArrow=classic;html=1;rounded=0;" edge="1" parent="1">
          <mxGeometry width="50" height="50" relative="1" as="geometry">
            <mxPoint x="351" y="275" as="sourcePoint" />
            <mxPoint x="440" y="275" as="targetPoint" />
          </mxGeometry>
        </mxCell>
        <mxCell id="YhFb4jNiVjIDG77X7m0W-820" value="" style="shape=mxgraph.gcp2.doubleRect;strokeColor=#dddddd;shadow=1;strokeWidth=1;rounded=1;absoluteArcSize=1;arcSize=2;" vertex="1" parent="1">
          <mxGeometry x="636" y="241.5" width="128" height="68" as="geometry" />
        </mxCell>
        <mxCell id="YhFb4jNiVjIDG77X7m0W-821" value="&lt;br&gt;Dataflow" style="editableCssRules=.*;html=1;fontColor=#999999;shape=image;verticalLabelPosition=middle;labelBackgroundColor=#ffffff;verticalAlign=middle;labelPosition=right;align=left;spacingLeft=20;part=1;points=[];imageAspect=0;image=data:image/svg+xml,PHN2ZyB4bWxucz0iaHR0cDovL3d3dy53My5vcmcvMjAwMC9zdmciIHhtbG5zOnY9Imh0dHBzOi8vdmVjdGEuaW8vbmFubyIgd2lkdGg9IjE0LjUxOTk5OTUwNDA4OTM1NSIgaGVpZ2h0PSIyMCIgdmlld0JveD0iMCAwIDE0LjUxOTk5OTUwNDA4OTM1NSAyMCI+JiN4YTsJPHN0eWxlIHR5cGU9InRleHQvY3NzIj4mI3hhOwkuc3Qwe2ZpbGwtcnVsZTpldmVub2RkfSYjeGE7CS5zdDF7ZmlsbDojNjY5ZGY2O30mI3hhOwkuc3Qye2ZpbGw6I2FlY2JmYTt9JiN4YTsJLnN0M3tmaWxsOiM0Mjg1ZjQ7fSYjeGE7CTwvc3R5bGU+JiN4YTsJPGcgY2xhc3M9InN0MCI+JiN4YTsJCTxwYXRoIGNsYXNzPSJzdDEiIGQ9Ik03LjM3IDIuMDNsLTEuNzIuOTYgMS41MiAxLjUtLjAyIDEuNzMgMS4wMi4wMS4wMi0xLjczIDQuMjQgMi41Ni0uMDEgMS4wNyAxLjc3LjAzVjYuMTFMOS4wNSAzLjA0bC0uMjctLjk0eiIvPiYjeGE7CQk8cGF0aCBjbGFzcz0ic3QyIiBkPSJNNy4zNiAyLjAzbC0xLjQyLjM1LS4yOS42MUwuMzkgNS45Mi4zNiA3Ljk3IDIuMTQgOGwuMDItMS4wNyA0LjMxLTIuNDUtLjAyIDEuNzMuODYuMDEuMDYtNC4xOXoiLz4mI3hhOwkJPGcgY2xhc3M9InN0MSI+JiN4YTsJCQk8cGF0aCBkPSJNNy4zNiAyLjAzTDMuOTUgMCAyLjIxLjk1bDMuNDQgMi4wNCAxLjcyLS45NnptLjcxIDExLjc2bC0xLjcyLS4wMi0uMDIgMS43Mi44MiAyLjQ4IDEuNDItLjEyLjI5LS44NSA1LjI3LTIuOTMuMDMtMi4wOS0xLjc5LS4wMi0uMDIgMS4xLTQuMyAyLjQ1eiIvPiYjeGE7CQkJPHBhdGggZD0iTTcuMTUgMTcuOTdsLTMuNDYgMS45NGgtLjA1bC0xLjY2LS45OSAzLjQ5LTEuOTYgMS42OCAxLjAxeiIvPiYjeGE7CQk8L2c+JiN4YTsJCTxwYXRoIGNsYXNzPSJzdDMiIGQ9Ik0xMC44OC4wOWgtLjA1TDcuMzcgMi4wM2wxLjY4IDEuMDEgMy40OS0xLjk2ek0xMC42MiAyMGgtLjA1bC0zLjQyLTIuMDNoMCAwIDBsMS43Mi0uOTYgMy40NCAyLjA0eiIvPiYjeGE7CQk8cGF0aCBjbGFzcz0ic3QyIiBkPSJNLjMzIDEzLjg5di0yaDEuNzZsLS4wMSAxLjA0IDQuMjUgMi41Ni4wMi0xLjcyLjg2LjAxLS4wNiA0LjE4LTEuNjgtMXoiLz4mI3hhOwk8L2c+JiN4YTsJPGNpcmNsZSBjbGFzcz0ic3QyIiBjeD0iMTMuMzgiIGN5PSIxMC4wNCIgcj0iMS4xNCIvPiYjeGE7CTxjaXJjbGUgY2xhc3M9InN0MiIgY3g9IjEuMTQiIGN5PSI5Ljg4IiByPSIxLjE0Ii8+JiN4YTsJPGNpcmNsZSBjbGFzcz0ic3QyIiBjeD0iNy4zMiIgY3k9IjcuOTkiIHI9IjEuMTQiLz4mI3hhOwk8Y2lyY2xlIGNsYXNzPSJzdDIiIGN4PSI3LjIzIiBjeT0iMTIiIHI9IjEuMTQiLz4mI3hhOzwvc3ZnPg==;" vertex="1" parent="YhFb4jNiVjIDG77X7m0W-820">
          <mxGeometry width="22" height="30" relative="1" as="geometry">
            <mxPoint x="19" y="15" as="offset" />
          </mxGeometry>
        </mxCell>
        <mxCell id="YhFb4jNiVjIDG77X7m0W-823" value="" style="endArrow=classic;html=1;rounded=0;" edge="1" parent="1">
          <mxGeometry width="50" height="50" relative="1" as="geometry">
            <mxPoint x="578" y="275" as="sourcePoint" />
            <mxPoint x="637" y="273" as="targetPoint" />
          </mxGeometry>
        </mxCell>
        <mxCell id="YhFb4jNiVjIDG77X7m0W-825" value="Google&#xa;Data Studio" style="sketch=0;html=1;verticalAlign=top;labelPosition=center;verticalLabelPosition=bottom;align=center;spacingTop=-6;fontSize=11;fontStyle=1;fontColor=#999999;shape=image;aspect=fixed;imageAspect=0;image=data:image/svg+xml,PHN2ZyB4bWxucz0iaHR0cDovL3d3dy53My5vcmcvMjAwMC9zdmciIGlkPSJzdmcxMDczNDEiIHZlcnNpb249IjEuMSIgdmlld0JveD0iMCAwIDI3NS45ODY2OSAyNTIuNDI5NTMiIGhlaWdodD0iMjUyLjQyOTUzbW0iIHdpZHRoPSIyNzUuOTg2NjltbSI+JiN4YTsgICYjeGE7ICA8ZGVmcyBpZD0iZGVmczEwNzMzOCIvPiYjeGE7ICA8ZyB0cmFuc2Zvcm09InRyYW5zbGF0ZSgzMi40NTE1MzMsLTIwLjk0NjAxKSIgaWQ9ImxheWVyMSI+JiN4YTsgICAgPHBhdGggZD0ibSAxMDEuNjgwMDksMjczLjM3NTU0IGMgLTE2LjQ1MjEyLDAgLTMwLjkxMzQyMiwtMTQuMTc3MzIgLTMwLjkxMzQyMiwtMzQuMjM1OSAwLC0xOS4xNzQ5OSAxNS4xNTE1MjIsLTMzLjY1ODA3IDMzLjUxMzYxMiwtMzMuNjU4MDcgaCAxMDQuODc0NTEgdiA2Ny44OTM5NyB6IE0gLTEuNTM4MTA0NiwxODEuODUzMzYgYyAtMTYuNDUyMTI2NCwwIC0zMC45MTM0Mjg0LC0xNC4xNzczMiAtMzAuOTEzNDI4NCwtMzQuMjM1ODkgMCwtMTkuMTc1IDE1LjE1MTUxOSwtMzMuNjU4MDggMzMuNTEzNjE4NCwtMzMuNjU4MDggSCAxMDUuOTM2NiB2IDY3Ljg5Mzk3IHogTSAxMDEuNjgwMSw4OC44Mzk5OCBjIC0xNi40NTIxMzEsMCAtMzAuOTEzNDMzLC0xNC4xNzczMTcgLTMwLjkxMzQzMywtMzQuMjM1ODk1IDAsLTE5LjE3NDk5NCAxNS4xNTE1MTksLTMzLjY1ODA3NSAzMy41MTM2MjMsLTMzLjY1ODA3NSBIIDIwOS4xNTQ4IHYgNjcuODkzOTcgeiIgc3R5bGU9Im9wYWNpdHk6MTtmaWxsOiM3NjllZjU7ZmlsbC1vcGFjaXR5OjE7c3Ryb2tlOm5vbmU7c3Ryb2tlLXdpZHRoOjAuMjY0NTgzcHg7c3Ryb2tlLWxpbmVjYXA6YnV0dDtzdHJva2UtbGluZWpvaW46bWl0ZXI7c3Ryb2tlLW9wYWNpdHk6MSIgaWQ9InBhdGgxMDc2MTAtMyIvPiYjeGE7ICAgIDxwYXRoIGQ9Im0gMjQzLjUzNTE1LDIzOS40Mjg1NSBjIDAsMTguOTg3NzUgLTE1LjM5MjYxLDMzLjk0Njk5IC0zNC4zODAzNiwzMy45NDY5OSAtMTguOTg3NzQsMCAtMzQuMzgwMzQsLTE0Ljk1OTI0IC0zNC4zODAzNCwtMzMuOTQ2OTkgMCwtMTguOTg3NzQgMTUuMzkyNiwtMzMuOTQ2OTggMzQuMzgwMzQsLTMzLjk0Njk4IDE4Ljk4Nzc1LC0xZS01IDM0LjM4MDM2LDE0Ljk1OTI0IDM0LjM4MDM2LDMzLjk0Njk4IHogTSAxNDAuMzE2OTYsMTQ3LjkwNjM4IGMgMCwxOC45ODc3NCAtMTUuMzkyNjEsMzMuOTQ2OTkgLTM0LjM4MDM2LDMzLjk0Njk4IC0xOC45ODc3NDUsMCAtMzQuMzgwMzU1LC0xNC45NTkyNCAtMzQuMzgwMzU1LC0zMy45NDY5OCAwLC0xOC45ODc3NSAxNS4zOTI2MSwtMzMuOTQ2OTkgMzQuMzgwMzU1LC0zMy45NDY5OSAxOC45ODc3NSwwIDM0LjM4MDM2LDE0Ljk1OTI0IDM0LjM4MDM2LDMzLjk0Njk5IHogTSAyNDMuNTM1MTUsNTQuODkyOTk0IGMgMCwxOC45ODc3NDcgLTE1LjM5MjYxLDMzLjk0Njk5IC0zNC4zODAzNiwzMy45NDY5ODYgLTE4Ljk4Nzc0LC0xMGUtNyAtMzQuMzgwMzQsLTE0Ljk1OTI0MyAtMzQuMzgwMzQsLTMzLjk0Njk4NiAwLC0xOC45ODc3NDMgMTUuMzkyNiwtMzMuOTQ2OTgzIDM0LjM4MDM0LC0zMy45NDY5ODQgMTguOTg3NzUsLTVlLTYgMzQuMzgwMzYsMTQuOTU5MjM3IDM0LjM4MDM2LDMzLjk0Njk4NCB6IiBzdHlsZT0ib3BhY2l0eToxO2ZpbGw6IzQwNzVlNjtmaWxsLW9wYWNpdHk6MTtzdHJva2Utd2lkdGg6MjE7c3Ryb2tlLWxpbmVqb2luOnJvdW5kIiBpZD0icGF0aDEwNzYzNC00Ii8+JiN4YTsgIDwvZz4mI3hhOzwvc3ZnPg==;" vertex="1" parent="1">
          <mxGeometry x="852" y="388.67" width="70" height="63.33" as="geometry" />
        </mxCell>
        <mxCell id="YhFb4jNiVjIDG77X7m0W-826" value="" style="endArrow=classic;html=1;rounded=0;exitX=0.5;exitY=1;exitDx=0;exitDy=0;" edge="1" parent="1" source="52wyWmUOpJA0G0dxpCUH-1061">
          <mxGeometry width="50" height="50" relative="1" as="geometry">
            <mxPoint x="863" y="367" as="sourcePoint" />
            <mxPoint x="892" y="386" as="targetPoint" />
          </mxGeometry>
        </mxCell>
        <mxCell id="YhFb4jNiVjIDG77X7m0W-827" value="Data Pipeline 1&amp;nbsp;" style="fillColor=#4DA1F5;strokeColor=none;shadow=1;gradientColor=none;fontSize=14;align=left;spacingLeft=50;fontColor=#ffffff;html=1;" vertex="1" parent="1">
          <mxGeometry x="162" y="2" width="720" height="40" as="geometry" />
        </mxCell>
        <mxCell id="YhFb4jNiVjIDG77X7m0W-829" style="edgeStyle=orthogonalEdgeStyle;rounded=0;orthogonalLoop=1;jettySize=auto;html=1;exitX=1;exitY=1;exitDx=0;exitDy=0;" edge="1" parent="1" source="YhFb4jNiVjIDG77X7m0W-828">
          <mxGeometry relative="1" as="geometry">
            <mxPoint x="568" y="576" as="targetPoint" />
          </mxGeometry>
        </mxCell>
        <mxCell id="YhFb4jNiVjIDG77X7m0W-828" value="&lt;h1 style=&quot;text-align: justify; font-size: 13px;&quot;&gt;&lt;ol&gt;&lt;li&gt;&lt;font face=&quot;Times New Roman&quot;&gt;Setting up Cloudsql.&lt;/font&gt;&lt;/li&gt;&lt;li&gt;&lt;font face=&quot;Times New Roman&quot;&gt;Streaming data from cloudsql into cloud storage to main synchrony.&lt;/font&gt;&lt;/li&gt;&lt;li&gt;&lt;font face=&quot;Times New Roman&quot;&gt;Configure Pub/Sub notification on the bucket&amp;nbsp;&lt;/font&gt;&lt;/li&gt;&lt;li&gt;&lt;font face=&quot;Times New Roman&quot;&gt;Build a stream pipeline using dataflow&amp;nbsp;&lt;/font&gt;&lt;/li&gt;&lt;/ol&gt;&lt;/h1&gt;" style="text;html=1;strokeColor=none;fillColor=none;spacing=5;spacingTop=-20;whiteSpace=wrap;overflow=hidden;rounded=0;" vertex="1" parent="1">
          <mxGeometry x="331" y="444" width="382" height="183" as="geometry" />
        </mxCell>
        <mxCell id="YhFb4jNiVjIDG77X7m0W-830" value="Pub/Sub" style="sketch=0;html=1;verticalAlign=top;labelPosition=center;verticalLabelPosition=bottom;align=center;spacingTop=-6;fontSize=11;fontStyle=1;fontColor=#999999;shape=image;aspect=fixed;imageAspect=0;image=data:image/svg+xml,PHN2ZyB4bWxucz0iaHR0cDovL3d3dy53My5vcmcvMjAwMC9zdmciIHhtbG5zOnY9Imh0dHBzOi8vdmVjdGEuaW8vbmFubyIgd2lkdGg9IjE4LjMxOTk5OTY5NDgyNDIyIiBoZWlnaHQ9IjIwLjAwMDAwMTkwNzM0ODYzMyIgdmlld0JveD0iMCAwIDE4LjMxOTk5OTY5NDgyNDIyIDIwLjAwMDAwMTkwNzM0ODYzMyI+JiN4YTsJPHN0eWxlIHR5cGU9InRleHQvY3NzIj4mI3hhOwkuc3Qwe2ZpbGw6IzY2OWRmNjt9JiN4YTsJLnN0MXtmaWxsOiM0Mjg1ZjQ7fSYjeGE7CS5zdDJ7ZmlsbDojYWVjYmZhO30mI3hhOwk8L3N0eWxlPiYjeGE7CTxkZWZzPiYjeGE7CQk8ZmlsdGVyIGlkPSJBIiB4PSI0LjY0IiB5PSI0LjE5IiB3aWR0aD0iMTQuNzMiIGhlaWdodD0iMTIuNzYiIGZpbHRlclVuaXRzPSJ1c2VyU3BhY2VPblVzZSIgY29sb3ItaW50ZXJwb2xhdGlvbi1maWx0ZXJzPSJzUkdCIj4mI3hhOwkJCTxmZUZsb29kIGZsb29kLWNvbG9yPSIjZmZmIi8+JiN4YTsJCQk8ZmVCbGVuZCBpbj0iU291cmNlR3JhcGhpYyIvPiYjeGE7CQk8L2ZpbHRlcj4mI3hhOwkJPG1hc2sgaWQ9IkIiIHg9IjQuNjQiIHk9IjQuMTkiIHdpZHRoPSIxNC43MyIgaGVpZ2h0PSIxMi43NiIgbWFza1VuaXRzPSJ1c2VyU3BhY2VPblVzZSI+JiN4YTsJCQk8Y2lyY2xlIGN4PSIxMiIgY3k9IjEyLjIzIiByPSIzLjU4IiBmaWx0ZXI9InVybCgjQSkiLz4mI3hhOwkJPC9tYXNrPiYjeGE7CTwvZGVmcz4mI3hhOwk8ZyBjbGFzcz0ic3QwIj4mI3hhOwkJPGNpcmNsZSBjeD0iMTYuMTMiIGN5PSI2LjIxIiByPSIxLjcyIi8+JiN4YTsJCTxjaXJjbGUgY3g9IjIuMTkiIGN5PSI2LjIxIiByPSIxLjcyIi8+JiN4YTsJCTxjaXJjbGUgY3g9IjkuMTYiIGN5PSIxOC4yOCIgcj0iMS43MiIvPiYjeGE7CTwvZz4mI3hhOwk8ZyBtYXNrPSJ1cmwoI0IpIiB0cmFuc2Zvcm09InRyYW5zbGF0ZSgtMi44NCAtMikiPiYjeGE7CQk8cGF0aCB0cmFuc2Zvcm09Im1hdHJpeCguNSAtLjg3IC44NyAuNSAtNC41OSAyMC41MykiIGQ9Ik0xNC42OSAxMC4yMmgxLjU5djguMDRoLTEuNTl6IiBjbGFzcz0ic3QxIi8+JiN4YTsJCTxwYXRoIHRyYW5zZm9ybT0icm90YXRlKDMzMCA4LjUyMyAxNC4yNDQpIiBkPSJNNC40OSAxMy40NWg4LjA0djEuNTlINC40OXoiIGNsYXNzPSJzdDEiLz4mI3hhOwkJPHBhdGggZD0iTTExLjIgNC4xOWgxLjU5djguMDRIMTEuMnoiIGNsYXNzPSJzdDEiLz4mI3hhOwk8L2c+JiN4YTsJPGcgY2xhc3M9InN0MiI+JiN4YTsJCTxjaXJjbGUgY3g9IjkuMTYiIGN5PSIxMC4yMyIgcj0iMi43OCIvPiYjeGE7CQk8Y2lyY2xlIGN4PSIyLjE5IiBjeT0iMTQuMjUiIHI9IjIuMTkiLz4mI3hhOwkJPGNpcmNsZSBjeD0iMTYuMTMiIGN5PSIxNC4yNSIgcj0iMi4xOSIvPiYjeGE7CQk8Y2lyY2xlIGN4PSI5LjE2IiBjeT0iMi4xOSIgcj0iMi4xOSIvPiYjeGE7CTwvZz4mI3hhOzwvc3ZnPg==;" vertex="1" parent="1">
          <mxGeometry x="492" y="357" width="32.57" height="36" as="geometry" />
        </mxCell>
        <mxCell id="YhFb4jNiVjIDG77X7m0W-831" value="" style="edgeStyle=none;html=1;strokeColor=#808080;endArrow=block;endSize=10;dashed=0;verticalAlign=bottom;strokeWidth=2;rounded=0;" edge="1" parent="1">
          <mxGeometry width="160" relative="1" as="geometry">
            <mxPoint x="507" y="347" as="sourcePoint" />
            <mxPoint x="509" y="309" as="targetPoint" />
          </mxGeometry>
        </mxCell>
      </root>
    </mxGraphModel>
  </diagram>
</mxfile>
